<?xml version="1.0" encoding="UTF-8" standalone="no"?>
<svg
   xmlns:dc="http://purl.org/dc/elements/1.1/"
   xmlns:cc="http://creativecommons.org/ns#"
   xmlns:rdf="http://www.w3.org/1999/02/22-rdf-syntax-ns#"
   xmlns:svg="http://www.w3.org/2000/svg"
   xmlns="http://www.w3.org/2000/svg"
   width="2200"
   height="2200"
   viewBox="0 0 2199.9999 2199.9999"
   id="svg2"
   version="1.1">
  <defs
     id="defs4" />
  <metadata
     id="metadata7">
    <rdf:RDF>
      <cc:Work
         rdf:about="">
        <dc:format>image/svg+xml</dc:format>
        <dc:type
           rdf:resource="http://purl.org/dc/dcmitype/StillImage" />
        <dc:title></dc:title>
      </cc:Work>
    </rdf:RDF>
  </metadata>
  <g
     style="fill:#000000"
     id="layer1"
     transform="translate(2094.64,514.87483)">
    <g
       style="fill:#000000"
       id="g4121"
       transform="translate(100.00048,-99.999907)">
      <path
         id="path4111-08"
         d="m -1094.6409,-64.87582 0,150 0,150 0,150 129.90432,75.00196 129.90427,75 0,-0.002 129.9043,75.00196 129.9043,75 0,150 -129.9043,-75 -129.9043,-75 0.002,150 129.90235,74.99999 129.9043,75 129.90429,75.00001 0,-150.00001 0,-149.99999 0,-150 -129.90429,-75 -129.9043,-75.00196 -129.9043,-75 0,0.002 -129.90432,-75.00196 0,-150 129.90432,75 129.9043,75 129.9043,75 129.90429,75.00196 -0.002,-150.00196 -129.90234,-75 -129.9043,-75 -129.9043,-75 -129.90427,-75 -129.90432,-75 z m 259.80859,750.00196 -129.90427,-75 -129.90432,-75 0,150 129.90242,75 129.90427,75 0,-150 z"
         style="opacity:1;fill:#000000;fill-opacity:1;fill-rule:evenodd;stroke:#ff0000;stroke-width:0;stroke-linecap:round;stroke-linejoin:miter;stroke-miterlimit:4;stroke-dasharray:none;stroke-dashoffset:0;stroke-opacity:1" />
      <path
         id="path4111-08-42"
         d="m -1094.6409,-64.87582 -129.9043,75 -129.9043,75 -129.9043,75.00196 -129.9024,75 -129.9043,75 0,150 129.9043,-75 129.9043,-75 129.9043,-75 129.9043,-75.00196 0,150 -129.9043,75 -129.9043,75.00196 0,150 129.9043,-75 129.9043,-75.00196 129.9043,-75 0,-150 0,-150 0,-150 z m 0,600 -129.9043,75 -129.9024,75.00196 -129.9043,75 -129.9043,75 -129.9043,75.00005 0,150.00191 129.9043,-75.00191 129.9043,-75 129.9024,-75.00005 129.9043,-75 129.9043,-75.00196 0,-150 z"
         style="opacity:1;fill:#000000;fill-opacity:1;fill-rule:evenodd;stroke:#ff0000;stroke-width:0;stroke-linecap:round;stroke-linejoin:miter;stroke-miterlimit:4;stroke-dasharray:none;stroke-dashoffset:0;stroke-opacity:1" />
      <rect
         transform="matrix(0.8660254,-0.5,0.5,0.8660254,0,0)"
         y="295.82474"
         x="-1080.5482"
         height="9.9999886"
         width="239.99997"
         id="rect4039"
         style="opacity:1;fill:#000000;fill-opacity:1;fill-rule:evenodd;stroke:#000080;stroke-width:0;stroke-linecap:round;stroke-linejoin:miter;stroke-miterlimit:4;stroke-dasharray:none;stroke-dashoffset:0;stroke-opacity:1" />
      <rect
         transform="matrix(0.8660254,-0.5,0.5,0.8660254,0,0)"
         y="165.92123"
         x="-855.54779"
         height="9.9999886"
         width="239.99997"
         id="rect4039-5"
         style="opacity:1;fill:#000000;fill-opacity:1;fill-rule:evenodd;stroke:#000080;stroke-width:0;stroke-linecap:round;stroke-linejoin:miter;stroke-miterlimit:4;stroke-dasharray:none;stroke-dashoffset:0;stroke-opacity:1" />
      <rect
         transform="matrix(0.8660254,0.5,-0.5,0.8660254,0,0)"
         y="1260.5612"
         x="-1280.4242"
         height="9.9999886"
         width="519.99994"
         id="rect4060"
         style="opacity:1;fill:#000000;fill-opacity:1;fill-rule:evenodd;stroke:#000080;stroke-width:0;stroke-linecap:round;stroke-linejoin:miter;stroke-miterlimit:4;stroke-dasharray:none;stroke-dashoffset:0;stroke-opacity:1" />
      <rect
         transform="matrix(0.8660254,0.5,-0.5,0.8660254,0,0)"
         y="1780.1769"
         x="-980.42523"
         height="9.9999895"
         width="749.99988"
         id="rect4062"
         style="opacity:1;fill:#000000;fill-opacity:1;fill-rule:evenodd;stroke:#000080;stroke-width:0;stroke-linecap:round;stroke-linejoin:miter;stroke-miterlimit:4;stroke-dasharray:none;stroke-dashoffset:0;stroke-opacity:1" />
      <rect
         transform="matrix(-0.8660254,0.5,0.5,0.8660254,0,0)"
         y="685.53424"
         x="915.55151"
         height="9.9999895"
         width="749.99982"
         id="rect4062-5"
         style="opacity:1;fill:#000000;fill-opacity:1;fill-rule:evenodd;stroke:#000080;stroke-width:0;stroke-linecap:round;stroke-linejoin:miter;stroke-miterlimit:4;stroke-dasharray:none;stroke-dashoffset:0;stroke-opacity:1" />
      <path
         id="path4087"
         d="m -1354.4486,985.12714 -129.9043,74.99996 389.7109,225 129.9043,-75 z"
         style="opacity:1;fill:#000000;fill-opacity:1;fill-rule:evenodd;stroke:#ffffff;stroke-width:0;stroke-linecap:round;stroke-linejoin:miter;stroke-miterlimit:4;stroke-dasharray:none;stroke-dashoffset:0;stroke-opacity:1" />
      <path
         style="opacity:1;fill:#000000;fill-opacity:1;fill-rule:evenodd;stroke:#ffffff;stroke-width:0;stroke-linecap:round;stroke-linejoin:miter;stroke-miterlimit:4;stroke-dasharray:none;stroke-dashoffset:0;stroke-opacity:1"
         d="m -1094.64,835.12598 -129.9043,75.00001 389.71096,225.00001 129.90425,-75 z"
         id="path4095" />
    </g>
  </g>
</svg>
